<mxfile host="app.diagrams.net" modified="2022-02-16T11:22:55.148Z" agent="5.0 (Windows NT 10.0; Win64; x64) AppleWebKit/537.36 (KHTML, like Gecko) Chrome/94.0.4606.61 Safari/537.36" etag="mIKCja7awnyQvEKdeApX" version="16.5.6" type="github">
  <diagram id="PMNbHHIjErQ10D7FR_ej" name="第 1 页">
    <mxGraphModel dx="2012" dy="635" grid="1" gridSize="10" guides="1" tooltips="1" connect="1" arrows="1" fold="1" page="1" pageScale="1" pageWidth="827" pageHeight="1169" math="0" shadow="0">
      <root>
        <mxCell id="0" />
        <mxCell id="1" parent="0" />
        <mxCell id="KdYmeimfXarCjzWCJzDl-1" value="" style="rounded=0;whiteSpace=wrap;html=1;fillColor=#f5f5f5;fontColor=#333333;strokeColor=#666666;rotation=20;container=0;" vertex="1" parent="1">
          <mxGeometry x="300" y="170" width="210" height="340" as="geometry" />
        </mxCell>
        <mxCell id="KdYmeimfXarCjzWCJzDl-2" value="" style="rounded=1;whiteSpace=wrap;html=1;rotation=-225;fillColor=#dae8fc;strokeColor=#6c8ebf;container=0;" vertex="1" parent="1">
          <mxGeometry x="290" y="200" width="90" height="30" as="geometry" />
        </mxCell>
        <mxCell id="KdYmeimfXarCjzWCJzDl-4" value="" style="rounded=1;whiteSpace=wrap;html=1;rotation=110;fillColor=#dae8fc;strokeColor=#6c8ebf;container=0;" vertex="1" parent="1">
          <mxGeometry x="427" y="461" width="90" height="30" as="geometry" />
        </mxCell>
        <mxCell id="KdYmeimfXarCjzWCJzDl-5" value="" style="rounded=1;whiteSpace=wrap;html=1;rotation=110;fillColor=#dae8fc;strokeColor=#6c8ebf;container=0;" vertex="1" parent="1">
          <mxGeometry x="221" y="386" width="90" height="30" as="geometry" />
        </mxCell>
        <mxCell id="KdYmeimfXarCjzWCJzDl-28" value="" style="group" vertex="1" connectable="0" parent="1">
          <mxGeometry x="480" y="360" width="70" height="134" as="geometry" />
        </mxCell>
        <mxCell id="KdYmeimfXarCjzWCJzDl-21" value="" style="endArrow=classic;html=1;fontSize=8;curved=1;fillColor=#0050ef;strokeColor=#001DBC;" edge="1" parent="KdYmeimfXarCjzWCJzDl-28">
          <mxGeometry width="50" height="50" relative="1" as="geometry">
            <mxPoint y="106" as="sourcePoint" />
            <mxPoint x="70" y="134" as="targetPoint" />
          </mxGeometry>
        </mxCell>
        <mxCell id="KdYmeimfXarCjzWCJzDl-22" value="横向力" style="edgeLabel;html=1;align=center;verticalAlign=middle;resizable=0;points=[];fontSize=8;" vertex="1" connectable="0" parent="KdYmeimfXarCjzWCJzDl-21">
          <mxGeometry x="-0.1226" y="-1" relative="1" as="geometry">
            <mxPoint as="offset" />
          </mxGeometry>
        </mxCell>
        <mxCell id="KdYmeimfXarCjzWCJzDl-27" value="" style="group" vertex="1" connectable="0" parent="KdYmeimfXarCjzWCJzDl-28">
          <mxGeometry width="36" height="106" as="geometry" />
        </mxCell>
        <mxCell id="KdYmeimfXarCjzWCJzDl-24" value="" style="endArrow=classic;html=1;fontSize=8;fontColor=#66FF66;curved=1;fillColor=#e51400;strokeColor=#B20000;" edge="1" parent="KdYmeimfXarCjzWCJzDl-27">
          <mxGeometry width="50" height="50" relative="1" as="geometry">
            <mxPoint y="105" as="sourcePoint" />
            <mxPoint as="targetPoint" />
          </mxGeometry>
        </mxCell>
        <mxCell id="KdYmeimfXarCjzWCJzDl-25" value="速度方向" style="edgeLabel;html=1;align=center;verticalAlign=middle;resizable=0;points=[];fontSize=8;fontColor=#000000;" vertex="1" connectable="0" parent="KdYmeimfXarCjzWCJzDl-24">
          <mxGeometry x="0.6709" relative="1" as="geometry">
            <mxPoint x="-40" y="12" as="offset" />
          </mxGeometry>
        </mxCell>
        <mxCell id="KdYmeimfXarCjzWCJzDl-19" value="" style="endArrow=classic;html=1;fontSize=8;curved=1;fillColor=#60a917;strokeColor=#2D7600;" edge="1" parent="KdYmeimfXarCjzWCJzDl-27">
          <mxGeometry width="50" height="50" relative="1" as="geometry">
            <mxPoint y="106" as="sourcePoint" />
            <mxPoint x="30" y="30" as="targetPoint" />
          </mxGeometry>
        </mxCell>
        <mxCell id="KdYmeimfXarCjzWCJzDl-20" value="纵向力" style="edgeLabel;html=1;align=center;verticalAlign=middle;resizable=0;points=[];fontSize=8;" vertex="1" connectable="0" parent="KdYmeimfXarCjzWCJzDl-19">
          <mxGeometry x="0.571" y="-2" relative="1" as="geometry">
            <mxPoint x="5" y="23" as="offset" />
          </mxGeometry>
        </mxCell>
        <mxCell id="KdYmeimfXarCjzWCJzDl-14" value="" style="shape=requiredInterface;html=1;verticalLabelPosition=bottom;sketch=0;rotation=-75;fillColor=#f8cecc;strokeColor=#b85450;" vertex="1" parent="KdYmeimfXarCjzWCJzDl-27">
          <mxGeometry x="6" y="37" width="10" height="20" as="geometry" />
        </mxCell>
        <mxCell id="KdYmeimfXarCjzWCJzDl-26" value="SlipAngel" style="text;html=1;strokeColor=none;fillColor=none;align=center;verticalAlign=middle;whiteSpace=wrap;rounded=0;fontSize=8;fontColor=#000000;" vertex="1" parent="KdYmeimfXarCjzWCJzDl-27">
          <mxGeometry x="6" y="7" width="30" height="13" as="geometry" />
        </mxCell>
        <mxCell id="KdYmeimfXarCjzWCJzDl-39" value="" style="group" vertex="1" connectable="0" parent="1">
          <mxGeometry x="260" y="304" width="70" height="134" as="geometry" />
        </mxCell>
        <mxCell id="KdYmeimfXarCjzWCJzDl-40" value="" style="endArrow=classic;html=1;fontSize=8;curved=1;fillColor=#0050ef;strokeColor=#001DBC;" edge="1" parent="KdYmeimfXarCjzWCJzDl-39">
          <mxGeometry width="50" height="50" relative="1" as="geometry">
            <mxPoint y="106" as="sourcePoint" />
            <mxPoint x="70" y="134" as="targetPoint" />
          </mxGeometry>
        </mxCell>
        <mxCell id="KdYmeimfXarCjzWCJzDl-41" value="横向力" style="edgeLabel;html=1;align=center;verticalAlign=middle;resizable=0;points=[];fontSize=8;" vertex="1" connectable="0" parent="KdYmeimfXarCjzWCJzDl-40">
          <mxGeometry x="-0.1226" y="-1" relative="1" as="geometry">
            <mxPoint as="offset" />
          </mxGeometry>
        </mxCell>
        <mxCell id="KdYmeimfXarCjzWCJzDl-42" value="" style="group" vertex="1" connectable="0" parent="KdYmeimfXarCjzWCJzDl-39">
          <mxGeometry width="36" height="106" as="geometry" />
        </mxCell>
        <mxCell id="KdYmeimfXarCjzWCJzDl-43" value="" style="endArrow=classic;html=1;fontSize=8;fontColor=#66FF66;curved=1;fillColor=#e51400;strokeColor=#B20000;" edge="1" parent="KdYmeimfXarCjzWCJzDl-42">
          <mxGeometry width="50" height="50" relative="1" as="geometry">
            <mxPoint y="105" as="sourcePoint" />
            <mxPoint as="targetPoint" />
          </mxGeometry>
        </mxCell>
        <mxCell id="KdYmeimfXarCjzWCJzDl-45" value="" style="endArrow=classic;html=1;fontSize=8;curved=1;fillColor=#60a917;strokeColor=#2D7600;" edge="1" parent="KdYmeimfXarCjzWCJzDl-42">
          <mxGeometry width="50" height="50" relative="1" as="geometry">
            <mxPoint y="106" as="sourcePoint" />
            <mxPoint x="30" y="30" as="targetPoint" />
          </mxGeometry>
        </mxCell>
        <mxCell id="KdYmeimfXarCjzWCJzDl-46" value="纵向力" style="edgeLabel;html=1;align=center;verticalAlign=middle;resizable=0;points=[];fontSize=8;" vertex="1" connectable="0" parent="KdYmeimfXarCjzWCJzDl-45">
          <mxGeometry x="0.571" y="-2" relative="1" as="geometry">
            <mxPoint x="5" y="23" as="offset" />
          </mxGeometry>
        </mxCell>
        <mxCell id="KdYmeimfXarCjzWCJzDl-47" value="" style="shape=requiredInterface;html=1;verticalLabelPosition=bottom;sketch=0;rotation=-75;fillColor=#f8cecc;strokeColor=#b85450;" vertex="1" parent="KdYmeimfXarCjzWCJzDl-42">
          <mxGeometry x="6" y="37" width="10" height="20" as="geometry" />
        </mxCell>
        <mxCell id="KdYmeimfXarCjzWCJzDl-48" value="SlipAngel" style="text;html=1;strokeColor=none;fillColor=none;align=center;verticalAlign=middle;whiteSpace=wrap;rounded=0;fontSize=8;fontColor=#000000;" vertex="1" parent="KdYmeimfXarCjzWCJzDl-42">
          <mxGeometry x="6" y="7" width="30" height="13" as="geometry" />
        </mxCell>
        <mxCell id="KdYmeimfXarCjzWCJzDl-3" value="" style="rounded=1;whiteSpace=wrap;html=1;rotation=-225;fillColor=#dae8fc;strokeColor=#6c8ebf;container=0;" vertex="1" parent="1">
          <mxGeometry x="496" y="274" width="90" height="30" as="geometry" />
        </mxCell>
        <mxCell id="KdYmeimfXarCjzWCJzDl-30" value="" style="endArrow=classic;html=1;fontSize=8;curved=1;fillColor=#0050ef;strokeColor=#001DBC;" edge="1" parent="1">
          <mxGeometry width="50" height="50" relative="1" as="geometry">
            <mxPoint x="539" y="300" as="sourcePoint" />
            <mxPoint x="596" y="352" as="targetPoint" />
          </mxGeometry>
        </mxCell>
        <mxCell id="KdYmeimfXarCjzWCJzDl-31" value="横向力" style="edgeLabel;html=1;align=center;verticalAlign=middle;resizable=0;points=[];fontSize=8;rotation=20;" vertex="1" connectable="0" parent="KdYmeimfXarCjzWCJzDl-30">
          <mxGeometry x="-0.1226" y="-1" relative="1" as="geometry">
            <mxPoint as="offset" />
          </mxGeometry>
        </mxCell>
        <mxCell id="KdYmeimfXarCjzWCJzDl-33" value="" style="endArrow=classic;html=1;fontSize=8;fontColor=#66FF66;curved=1;fillColor=#e51400;strokeColor=#B20000;" edge="1" parent="1">
          <mxGeometry width="50" height="50" relative="1" as="geometry">
            <mxPoint x="537" y="302" as="sourcePoint" />
            <mxPoint x="537" y="190" as="targetPoint" />
          </mxGeometry>
        </mxCell>
        <mxCell id="KdYmeimfXarCjzWCJzDl-34" value="速度方向" style="edgeLabel;html=1;align=center;verticalAlign=middle;resizable=0;points=[];fontSize=8;fontColor=#000000;rotation=20;" vertex="1" connectable="0" parent="KdYmeimfXarCjzWCJzDl-33">
          <mxGeometry x="0.6709" relative="1" as="geometry">
            <mxPoint x="-40" y="12" as="offset" />
          </mxGeometry>
        </mxCell>
        <mxCell id="KdYmeimfXarCjzWCJzDl-35" value="" style="endArrow=classic;html=1;fontSize=8;curved=1;fillColor=#60a917;strokeColor=#2D7600;" edge="1" parent="1">
          <mxGeometry width="50" height="50" relative="1" as="geometry">
            <mxPoint x="536" y="303" as="sourcePoint" />
            <mxPoint x="592" y="241" as="targetPoint" />
          </mxGeometry>
        </mxCell>
        <mxCell id="KdYmeimfXarCjzWCJzDl-36" value="纵向力" style="edgeLabel;html=1;align=center;verticalAlign=middle;resizable=0;points=[];fontSize=8;rotation=20;" vertex="1" connectable="0" parent="KdYmeimfXarCjzWCJzDl-35">
          <mxGeometry x="0.571" y="-2" relative="1" as="geometry">
            <mxPoint x="5" y="23" as="offset" />
          </mxGeometry>
        </mxCell>
        <mxCell id="KdYmeimfXarCjzWCJzDl-37" value="" style="shape=requiredInterface;html=1;verticalLabelPosition=bottom;sketch=0;rotation=-55;fillColor=#f8cecc;strokeColor=#b85450;" vertex="1" parent="1">
          <mxGeometry x="550" y="229" width="10" height="40" as="geometry" />
        </mxCell>
        <mxCell id="KdYmeimfXarCjzWCJzDl-38" value="SlipAngel" style="text;html=1;strokeColor=none;fillColor=none;align=center;verticalAlign=middle;whiteSpace=wrap;rounded=0;fontSize=8;fontColor=#000000;rotation=20;" vertex="1" parent="1">
          <mxGeometry x="556" y="217" width="30" height="13" as="geometry" />
        </mxCell>
        <mxCell id="KdYmeimfXarCjzWCJzDl-54" value="" style="group" vertex="1" connectable="0" parent="1">
          <mxGeometry x="-20" y="20" width="50" height="122" as="geometry" />
        </mxCell>
        <mxCell id="KdYmeimfXarCjzWCJzDl-8" value="VelocityDir" style="endArrow=classic;html=1;rounded=0;fillColor=#e51400;strokeColor=#B20000;" edge="1" parent="KdYmeimfXarCjzWCJzDl-54">
          <mxGeometry y="40" width="50" height="50" relative="1" as="geometry">
            <mxPoint y="122" as="sourcePoint" />
            <mxPoint x="3" y="2" as="targetPoint" />
            <mxPoint as="offset" />
          </mxGeometry>
        </mxCell>
        <mxCell id="KdYmeimfXarCjzWCJzDl-53" value="ForwardDir" style="endArrow=classic;html=1;rounded=0;fillColor=#d5e8d4;strokeColor=#82b366;" edge="1" parent="KdYmeimfXarCjzWCJzDl-54">
          <mxGeometry x="0.0001" y="-27" width="50" height="50" relative="1" as="geometry">
            <mxPoint y="119" as="sourcePoint" />
            <mxPoint x="50" as="targetPoint" />
            <mxPoint as="offset" />
          </mxGeometry>
        </mxCell>
        <mxCell id="KdYmeimfXarCjzWCJzDl-56" value="" style="ellipse;whiteSpace=wrap;html=1;aspect=fixed;fontSize=8;fontColor=#ffffff;fillColor=#647687;strokeColor=#314354;" vertex="1" parent="1">
          <mxGeometry x="130" y="580" width="80" height="80" as="geometry" />
        </mxCell>
        <mxCell id="KdYmeimfXarCjzWCJzDl-57" value="" style="endArrow=classic;html=1;fontSize=8;fontColor=#000000;curved=1;fillColor=#e3c800;strokeColor=#B09500;" edge="1" parent="1">
          <mxGeometry width="50" height="50" relative="1" as="geometry">
            <mxPoint x="169.64" y="610" as="sourcePoint" />
            <mxPoint x="169.64" y="520" as="targetPoint" />
          </mxGeometry>
        </mxCell>
        <mxCell id="KdYmeimfXarCjzWCJzDl-58" value="悬挂支撑力(Fz)" style="edgeLabel;html=1;align=center;verticalAlign=middle;resizable=0;points=[];fontSize=8;fontColor=#000000;" vertex="1" connectable="0" parent="KdYmeimfXarCjzWCJzDl-57">
          <mxGeometry x="0.6476" y="-2" relative="1" as="geometry">
            <mxPoint x="-2" y="14" as="offset" />
          </mxGeometry>
        </mxCell>
        <mxCell id="KdYmeimfXarCjzWCJzDl-59" value="" style="endArrow=classic;html=1;fontSize=8;fontColor=#000000;curved=1;fillColor=#008a00;strokeColor=#005700;" edge="1" parent="1">
          <mxGeometry width="50" height="50" relative="1" as="geometry">
            <mxPoint x="160" y="660" as="sourcePoint" />
            <mxPoint x="70" y="660" as="targetPoint" />
          </mxGeometry>
        </mxCell>
        <mxCell id="KdYmeimfXarCjzWCJzDl-60" value="向前动力 F = 摩擦力 = 纵向力 + 横向力" style="edgeLabel;html=1;align=center;verticalAlign=middle;resizable=0;points=[];fontSize=8;fontColor=#000000;" vertex="1" connectable="0" parent="KdYmeimfXarCjzWCJzDl-59">
          <mxGeometry x="0.2762" y="2" relative="1" as="geometry">
            <mxPoint x="-3" y="28" as="offset" />
          </mxGeometry>
        </mxCell>
        <mxCell id="KdYmeimfXarCjzWCJzDl-61" value="摩擦力= Fz * Friction&amp;nbsp;" style="endArrow=classic;html=1;fontSize=8;fontColor=#000000;curved=1;fillColor=#e51400;strokeColor=#B20000;" edge="1" parent="1">
          <mxGeometry x="1" y="-14" width="50" height="50" relative="1" as="geometry">
            <mxPoint x="180" y="660" as="sourcePoint" />
            <mxPoint x="290" y="660" as="targetPoint" />
            <mxPoint x="10" y="-4" as="offset" />
          </mxGeometry>
        </mxCell>
        <mxCell id="KdYmeimfXarCjzWCJzDl-62" value="&lt;span style=&quot;font-size: 8px&quot;&gt;PxVehicleSuspensionRaycasts&lt;/span&gt;" style="rounded=1;whiteSpace=wrap;html=1;fontSize=8;fontColor=#000000;" vertex="1" parent="1">
          <mxGeometry x="-541.75" y="294" width="190" height="28" as="geometry" />
        </mxCell>
        <mxCell id="KdYmeimfXarCjzWCJzDl-85" style="edgeStyle=orthogonalEdgeStyle;curved=1;orthogonalLoop=1;jettySize=auto;html=1;exitX=0.5;exitY=1;exitDx=0;exitDy=0;entryX=0.5;entryY=0;entryDx=0;entryDy=0;fontSize=8;fontColor=#000000;startArrow=none;startFill=0;endArrow=classic;endFill=1;" edge="1" parent="1" target="KdYmeimfXarCjzWCJzDl-66">
          <mxGeometry relative="1" as="geometry">
            <mxPoint x="-447.5" y="322" as="sourcePoint" />
          </mxGeometry>
        </mxCell>
        <mxCell id="KdYmeimfXarCjzWCJzDl-94" style="edgeStyle=orthogonalEdgeStyle;curved=1;orthogonalLoop=1;jettySize=auto;html=1;entryX=0.5;entryY=0;entryDx=0;entryDy=0;fontSize=8;fontColor=#000000;startArrow=none;startFill=0;endArrow=classic;endFill=1;" edge="1" parent="1" source="KdYmeimfXarCjzWCJzDl-66" target="KdYmeimfXarCjzWCJzDl-67">
          <mxGeometry relative="1" as="geometry" />
        </mxCell>
        <mxCell id="KdYmeimfXarCjzWCJzDl-66" value="&lt;span style=&quot;font-size: 8px&quot;&gt;updateDrive4W&lt;/span&gt;" style="rounded=1;whiteSpace=wrap;html=1;fontSize=8;fontColor=#000000;" vertex="1" parent="1">
          <mxGeometry x="-527.5" y="338" width="160" height="28" as="geometry" />
        </mxCell>
        <mxCell id="KdYmeimfXarCjzWCJzDl-87" style="edgeStyle=orthogonalEdgeStyle;curved=1;orthogonalLoop=1;jettySize=auto;html=1;entryX=0.5;entryY=0;entryDx=0;entryDy=0;fontSize=8;fontColor=#000000;startArrow=none;startFill=0;endArrow=classic;endFill=1;" edge="1" parent="1" source="KdYmeimfXarCjzWCJzDl-67" target="KdYmeimfXarCjzWCJzDl-82">
          <mxGeometry relative="1" as="geometry" />
        </mxCell>
        <mxCell id="KdYmeimfXarCjzWCJzDl-67" value="&lt;span style=&quot;font-size: 8px&quot;&gt;UpdateEngine&lt;br&gt;&lt;/span&gt;" style="rounded=1;whiteSpace=wrap;html=1;fontSize=8;fontColor=#000000;" vertex="1" parent="1">
          <mxGeometry x="-527.5" y="382" width="160" height="28" as="geometry" />
        </mxCell>
        <mxCell id="KdYmeimfXarCjzWCJzDl-93" style="edgeStyle=orthogonalEdgeStyle;curved=1;orthogonalLoop=1;jettySize=auto;html=1;entryX=0.5;entryY=0;entryDx=0;entryDy=0;fontSize=8;fontColor=#000000;startArrow=none;startFill=0;endArrow=classic;endFill=1;" edge="1" parent="1" source="KdYmeimfXarCjzWCJzDl-71" target="KdYmeimfXarCjzWCJzDl-75">
          <mxGeometry relative="1" as="geometry" />
        </mxCell>
        <mxCell id="KdYmeimfXarCjzWCJzDl-71" value="&lt;span style=&quot;font-size: 8px&quot;&gt;integrateBody&lt;/span&gt;" style="rounded=1;whiteSpace=wrap;html=1;fontSize=8;fontColor=#000000;" vertex="1" parent="1">
          <mxGeometry x="-530" y="513" width="165" height="28" as="geometry" />
        </mxCell>
        <mxCell id="KdYmeimfXarCjzWCJzDl-73" value="" style="shape=flexArrow;endArrow=classic;startArrow=none;html=1;fontSize=8;fontColor=#000000;curved=1;startFill=0;fillColor=#dae8fc;strokeColor=#6c8ebf;" edge="1" parent="1">
          <mxGeometry width="100" height="100" relative="1" as="geometry">
            <mxPoint x="-332.5" y="526" as="sourcePoint" />
            <mxPoint x="-332.5" y="440" as="targetPoint" />
            <Array as="points">
              <mxPoint x="-232.5" y="526" />
              <mxPoint x="-232.5" y="440" />
            </Array>
          </mxGeometry>
        </mxCell>
        <mxCell id="KdYmeimfXarCjzWCJzDl-74" value="CurentStep &amp;lt; numSubSteps" style="edgeLabel;html=1;align=center;verticalAlign=middle;resizable=0;points=[];fontSize=8;fontColor=#000000;" vertex="1" connectable="0" parent="KdYmeimfXarCjzWCJzDl-73">
          <mxGeometry x="-0.0866" y="-2" relative="1" as="geometry">
            <mxPoint x="-2" y="-10" as="offset" />
          </mxGeometry>
        </mxCell>
        <mxCell id="KdYmeimfXarCjzWCJzDl-75" value="&lt;span style=&quot;font-size: 8px&quot;&gt;PxVehiclePostUpdates&lt;/span&gt;" style="rounded=1;whiteSpace=wrap;html=1;fontSize=8;fontColor=#000000;" vertex="1" parent="1">
          <mxGeometry x="-522.5" y="557" width="150" height="28" as="geometry" />
        </mxCell>
        <mxCell id="KdYmeimfXarCjzWCJzDl-90" style="edgeStyle=orthogonalEdgeStyle;curved=1;orthogonalLoop=1;jettySize=auto;html=1;exitX=0.5;exitY=1;exitDx=0;exitDy=0;entryX=0.5;entryY=0.036;entryDx=0;entryDy=0;entryPerimeter=0;fontSize=8;fontColor=#000000;startArrow=none;startFill=0;endArrow=classic;endFill=1;" edge="1" parent="1" source="KdYmeimfXarCjzWCJzDl-82" target="KdYmeimfXarCjzWCJzDl-83">
          <mxGeometry relative="1" as="geometry" />
        </mxCell>
        <mxCell id="KdYmeimfXarCjzWCJzDl-82" value="&lt;span style=&quot;font-size: 8px&quot;&gt;processSuspTireWheels&lt;/span&gt;" style="rounded=1;whiteSpace=wrap;html=1;fontSize=8;fontColor=#ffffff;fillColor=#e51400;strokeColor=#B20000;" vertex="1" parent="1">
          <mxGeometry x="-538.75" y="425" width="182.5" height="28" as="geometry" />
        </mxCell>
        <mxCell id="KdYmeimfXarCjzWCJzDl-92" style="edgeStyle=orthogonalEdgeStyle;curved=1;orthogonalLoop=1;jettySize=auto;html=1;entryX=0.5;entryY=0;entryDx=0;entryDy=0;fontSize=8;fontColor=#000000;startArrow=none;startFill=0;endArrow=classic;endFill=1;" edge="1" parent="1" source="KdYmeimfXarCjzWCJzDl-83" target="KdYmeimfXarCjzWCJzDl-71">
          <mxGeometry relative="1" as="geometry" />
        </mxCell>
        <mxCell id="KdYmeimfXarCjzWCJzDl-83" value="&lt;span style=&quot;font-size: 8px&quot;&gt;integrateWheelRotationAngles&lt;/span&gt;" style="rounded=1;whiteSpace=wrap;html=1;fontSize=8;fontColor=#000000;" vertex="1" parent="1">
          <mxGeometry x="-542.5" y="469" width="190" height="28" as="geometry" />
        </mxCell>
        <mxCell id="KdYmeimfXarCjzWCJzDl-110" value="FWheelFrictionCurve" style="swimlane;fontStyle=1;align=center;verticalAlign=top;childLayout=stackLayout;horizontal=1;startSize=26;horizontalStack=0;resizeParent=1;resizeParentMax=0;resizeLast=0;collapsible=1;marginBottom=0;fontSize=12;fontColor=#000000;" vertex="1" parent="1">
          <mxGeometry x="-730" y="920" width="160" height="124" as="geometry" />
        </mxCell>
        <mxCell id="KdYmeimfXarCjzWCJzDl-111" value="float ExtremumSlip;&#xa;		float ExtremumValue;&#xa;		float AsymptoteSlip;&#xa;		float AsymptoteValue;&#xa;		float Stiffness;" style="text;strokeColor=none;fillColor=none;align=left;verticalAlign=top;spacingLeft=4;spacingRight=4;overflow=hidden;rotatable=0;points=[[0,0.5],[1,0.5]];portConstraint=eastwest;fontSize=10;fontColor=#000000;" vertex="1" parent="KdYmeimfXarCjzWCJzDl-110">
          <mxGeometry y="26" width="160" height="64" as="geometry" />
        </mxCell>
        <mxCell id="KdYmeimfXarCjzWCJzDl-112" value="" style="line;strokeWidth=1;fillColor=none;align=left;verticalAlign=middle;spacingTop=-1;spacingLeft=3;spacingRight=3;rotatable=0;labelPosition=right;points=[];portConstraint=eastwest;fontSize=8;fontColor=#000000;" vertex="1" parent="KdYmeimfXarCjzWCJzDl-110">
          <mxGeometry y="90" width="160" height="8" as="geometry" />
        </mxCell>
        <mxCell id="KdYmeimfXarCjzWCJzDl-113" value="float hermiteEval(const float slip)" style="text;strokeColor=none;fillColor=none;align=left;verticalAlign=top;spacingLeft=4;spacingRight=4;overflow=hidden;rotatable=0;points=[[0,0.5],[1,0.5]];portConstraint=eastwest;fontSize=10;fontColor=#000000;" vertex="1" parent="KdYmeimfXarCjzWCJzDl-110">
          <mxGeometry y="98" width="160" height="26" as="geometry" />
        </mxCell>
        <mxCell id="KdYmeimfXarCjzWCJzDl-114" value="USTExtraDriftVehicleWheel" style="swimlane;fontStyle=1;align=center;verticalAlign=top;childLayout=stackLayout;horizontal=1;startSize=26;horizontalStack=0;resizeParent=1;resizeParentMax=0;resizeLast=0;collapsible=1;marginBottom=0;fontSize=10;fontColor=#000000;" vertex="1" parent="1">
          <mxGeometry x="-730" y="1060" width="200" height="78" as="geometry" />
        </mxCell>
        <mxCell id="KdYmeimfXarCjzWCJzDl-115" value="FWheelFrictionCurve ForwardFriction;&#xa;FWheelFrictionCurve SidewayFriction;" style="text;strokeColor=none;fillColor=none;align=left;verticalAlign=top;spacingLeft=4;spacingRight=4;overflow=hidden;rotatable=0;points=[[0,0.5],[1,0.5]];portConstraint=eastwest;fontSize=10;fontColor=#000000;" vertex="1" parent="KdYmeimfXarCjzWCJzDl-114">
          <mxGeometry y="26" width="200" height="44" as="geometry" />
        </mxCell>
        <mxCell id="KdYmeimfXarCjzWCJzDl-116" value="" style="line;strokeWidth=1;fillColor=none;align=left;verticalAlign=middle;spacingTop=-1;spacingLeft=3;spacingRight=3;rotatable=0;labelPosition=right;points=[];portConstraint=eastwest;fontSize=12;fontColor=#000000;" vertex="1" parent="KdYmeimfXarCjzWCJzDl-114">
          <mxGeometry y="70" width="200" height="8" as="geometry" />
        </mxCell>
        <mxCell id="KdYmeimfXarCjzWCJzDl-133" value="" style="group" vertex="1" connectable="0" parent="1">
          <mxGeometry x="-470" y="660" width="400" height="200" as="geometry" />
        </mxCell>
        <mxCell id="KdYmeimfXarCjzWCJzDl-119" value="" style="endArrow=classic;html=1;fontSize=10;fontColor=#000000;curved=1;" edge="1" parent="KdYmeimfXarCjzWCJzDl-133">
          <mxGeometry width="50" height="50" relative="1" as="geometry">
            <mxPoint y="200" as="sourcePoint" />
            <mxPoint as="targetPoint" />
          </mxGeometry>
        </mxCell>
        <mxCell id="KdYmeimfXarCjzWCJzDl-129" value="&lt;font style=&quot;font-size: 15px&quot;&gt;Force&lt;/font&gt;" style="edgeLabel;html=1;align=center;verticalAlign=middle;resizable=0;points=[];fontSize=10;fontColor=#000000;fontStyle=1" vertex="1" connectable="0" parent="KdYmeimfXarCjzWCJzDl-119">
          <mxGeometry x="0.8945" y="2" relative="1" as="geometry">
            <mxPoint x="32" y="4" as="offset" />
          </mxGeometry>
        </mxCell>
        <mxCell id="KdYmeimfXarCjzWCJzDl-121" value="" style="endArrow=classic;html=1;fontSize=10;fontColor=#000000;curved=1;" edge="1" parent="KdYmeimfXarCjzWCJzDl-133">
          <mxGeometry width="50" height="50" relative="1" as="geometry">
            <mxPoint y="200" as="sourcePoint" />
            <mxPoint x="400" y="200" as="targetPoint" />
          </mxGeometry>
        </mxCell>
        <mxCell id="KdYmeimfXarCjzWCJzDl-130" value="&lt;b&gt;Slip&lt;/b&gt;" style="edgeLabel;html=1;align=center;verticalAlign=middle;resizable=0;points=[];fontSize=15;fontColor=#000000;" vertex="1" connectable="0" parent="KdYmeimfXarCjzWCJzDl-121">
          <mxGeometry x="0.9359" relative="1" as="geometry">
            <mxPoint y="-20" as="offset" />
          </mxGeometry>
        </mxCell>
        <mxCell id="KdYmeimfXarCjzWCJzDl-124" value="" style="endArrow=classic;html=1;fontSize=10;fontColor=#000000;curved=1;" edge="1" parent="KdYmeimfXarCjzWCJzDl-133">
          <mxGeometry width="50" height="50" relative="1" as="geometry">
            <mxPoint y="200" as="sourcePoint" />
            <mxPoint x="300" y="110" as="targetPoint" />
            <Array as="points">
              <mxPoint x="40" y="130" />
              <mxPoint x="80" y="60" />
              <mxPoint x="130" y="20" />
              <mxPoint x="170" y="100" />
              <mxPoint x="190" y="110" />
              <mxPoint x="210" y="110" />
            </Array>
          </mxGeometry>
        </mxCell>
        <mxCell id="KdYmeimfXarCjzWCJzDl-125" value="" style="shape=waypoint;sketch=0;fillStyle=solid;size=6;pointerEvents=1;points=[];fillColor=none;resizable=0;rotatable=0;perimeter=centerPerimeter;snapToPoint=1;fontSize=10;fontColor=#000000;" vertex="1" parent="KdYmeimfXarCjzWCJzDl-133">
          <mxGeometry x="100" y="14" width="40" height="40" as="geometry" />
        </mxCell>
        <mxCell id="KdYmeimfXarCjzWCJzDl-128" value="" style="shape=waypoint;sketch=0;fillStyle=solid;size=6;pointerEvents=1;points=[];fillColor=none;resizable=0;rotatable=0;perimeter=centerPerimeter;snapToPoint=1;fontSize=10;fontColor=#000000;" vertex="1" parent="KdYmeimfXarCjzWCJzDl-133">
          <mxGeometry x="174" y="90" width="40" height="40" as="geometry" />
        </mxCell>
        <mxCell id="KdYmeimfXarCjzWCJzDl-131" value="Extremum" style="text;html=1;strokeColor=none;fillColor=none;align=center;verticalAlign=middle;whiteSpace=wrap;rounded=0;fontSize=12;fontColor=#000000;fontStyle=1" vertex="1" parent="KdYmeimfXarCjzWCJzDl-133">
          <mxGeometry x="130" y="10" width="60" height="30" as="geometry" />
        </mxCell>
        <mxCell id="KdYmeimfXarCjzWCJzDl-132" value="Asymptote" style="text;html=1;strokeColor=none;fillColor=none;align=center;verticalAlign=middle;whiteSpace=wrap;rounded=0;fontSize=12;fontColor=#000000;fontStyle=1" vertex="1" parent="KdYmeimfXarCjzWCJzDl-133">
          <mxGeometry x="200" y="80" width="60" height="30" as="geometry" />
        </mxCell>
        <mxCell id="KdYmeimfXarCjzWCJzDl-136" value="" style="shape=flexArrow;endArrow=classic;html=1;fontSize=12;fontColor=#000000;curved=1;fillColor=#e51400;strokeColor=#B20000;" edge="1" parent="1" source="KdYmeimfXarCjzWCJzDl-82">
          <mxGeometry width="50" height="50" relative="1" as="geometry">
            <mxPoint x="-590" y="470" as="sourcePoint" />
            <mxPoint x="-580" y="439" as="targetPoint" />
          </mxGeometry>
        </mxCell>
        <mxCell id="KdYmeimfXarCjzWCJzDl-141" value="processSuspTireWheels" style="swimlane;fontSize=12;fontColor=#000000;startSize=17;" vertex="1" parent="1">
          <mxGeometry x="-790" y="304" width="210" height="280" as="geometry" />
        </mxCell>
        <mxCell id="KdYmeimfXarCjzWCJzDl-142" value="" style="group" vertex="1" connectable="0" parent="KdYmeimfXarCjzWCJzDl-141">
          <mxGeometry x="11.25" y="26" width="187.5" height="228" as="geometry" />
        </mxCell>
        <mxCell id="KdYmeimfXarCjzWCJzDl-95" value="&lt;span style=&quot;font-size: 8px&quot;&gt;ComputeSuspension&amp;amp;TireLoad&lt;/span&gt;" style="rounded=1;whiteSpace=wrap;html=1;fontSize=8;fontColor=#000000;" vertex="1" parent="KdYmeimfXarCjzWCJzDl-142">
          <mxGeometry width="187.5" height="28" as="geometry" />
        </mxCell>
        <mxCell id="KdYmeimfXarCjzWCJzDl-96" value="&lt;span style=&quot;font-size: 8px&quot;&gt;computeTireSlips&lt;/span&gt;" style="rounded=1;whiteSpace=wrap;html=1;fontSize=8;fontColor=#000000;" vertex="1" parent="KdYmeimfXarCjzWCJzDl-142">
          <mxGeometry y="50" width="187.5" height="28" as="geometry" />
        </mxCell>
        <mxCell id="KdYmeimfXarCjzWCJzDl-101" style="edgeStyle=orthogonalEdgeStyle;curved=1;orthogonalLoop=1;jettySize=auto;html=1;entryX=0.5;entryY=0;entryDx=0;entryDy=0;fontSize=8;fontColor=#000000;startArrow=none;startFill=0;endArrow=classic;endFill=1;" edge="1" parent="KdYmeimfXarCjzWCJzDl-142" source="KdYmeimfXarCjzWCJzDl-95" target="KdYmeimfXarCjzWCJzDl-96">
          <mxGeometry relative="1" as="geometry" />
        </mxCell>
        <mxCell id="KdYmeimfXarCjzWCJzDl-97" value="&lt;span style=&quot;font-size: 8px&quot;&gt;computeTireFriction&lt;/span&gt;" style="rounded=1;whiteSpace=wrap;html=1;fontSize=8;fontColor=#000000;" vertex="1" parent="KdYmeimfXarCjzWCJzDl-142">
          <mxGeometry y="100" width="187.5" height="28" as="geometry" />
        </mxCell>
        <mxCell id="KdYmeimfXarCjzWCJzDl-102" style="edgeStyle=orthogonalEdgeStyle;curved=1;orthogonalLoop=1;jettySize=auto;html=1;entryX=0.495;entryY=-0.064;entryDx=0;entryDy=0;entryPerimeter=0;fontSize=8;fontColor=#000000;startArrow=none;startFill=0;endArrow=classic;endFill=1;" edge="1" parent="KdYmeimfXarCjzWCJzDl-142" source="KdYmeimfXarCjzWCJzDl-96" target="KdYmeimfXarCjzWCJzDl-97">
          <mxGeometry relative="1" as="geometry" />
        </mxCell>
        <mxCell id="KdYmeimfXarCjzWCJzDl-98" value="&lt;span style=&quot;font-size: 8px&quot;&gt;computeTireForce&lt;/span&gt;" style="rounded=1;whiteSpace=wrap;html=1;fontSize=8;fillColor=#f8cecc;strokeColor=#b85450;" vertex="1" parent="KdYmeimfXarCjzWCJzDl-142">
          <mxGeometry y="150" width="187.5" height="28" as="geometry" />
        </mxCell>
        <mxCell id="KdYmeimfXarCjzWCJzDl-103" style="edgeStyle=orthogonalEdgeStyle;curved=1;orthogonalLoop=1;jettySize=auto;html=1;entryX=0.5;entryY=0;entryDx=0;entryDy=0;fontSize=8;fontColor=#000000;startArrow=none;startFill=0;endArrow=classic;endFill=1;" edge="1" parent="KdYmeimfXarCjzWCJzDl-142" source="KdYmeimfXarCjzWCJzDl-97" target="KdYmeimfXarCjzWCJzDl-98">
          <mxGeometry relative="1" as="geometry" />
        </mxCell>
        <mxCell id="KdYmeimfXarCjzWCJzDl-104" value="ApplyForceToChassis" style="rounded=1;whiteSpace=wrap;html=1;fontSize=8;fontColor=#000000;" vertex="1" parent="KdYmeimfXarCjzWCJzDl-142">
          <mxGeometry y="200" width="187.5" height="28" as="geometry" />
        </mxCell>
        <mxCell id="KdYmeimfXarCjzWCJzDl-105" style="edgeStyle=orthogonalEdgeStyle;curved=1;orthogonalLoop=1;jettySize=auto;html=1;entryX=0.5;entryY=0;entryDx=0;entryDy=0;fontSize=8;fontColor=#000000;startArrow=none;startFill=0;endArrow=classic;endFill=1;" edge="1" parent="KdYmeimfXarCjzWCJzDl-142" source="KdYmeimfXarCjzWCJzDl-98" target="KdYmeimfXarCjzWCJzDl-104">
          <mxGeometry relative="1" as="geometry" />
        </mxCell>
      </root>
    </mxGraphModel>
  </diagram>
</mxfile>
